<svg xmlns="http://www.w3.org/2000/svg" xmlns:xlink="http://www.w3.org/1999/xlink" viewBox="0 0 141.87 132.81"><defs><style>.cls-1{fill:none;}.cls-2{clip-path:url(#clip-path);}</style><clipPath id="clip-path" transform="translate(0.15 -0.11)"><rect class="cls-1" width="141.73" height="133.03"/></clipPath></defs><title>adelante</title><g id="Capa_2" data-name="Capa 2"><g id="Layer_1" data-name="Layer 1"><g class="cls-2"><g id="Group_3" data-name="Group 3"><path id="Fill_1" data-name="Fill 1" d="M4.28,71H126.61L79.83,117.73l-7.73,7.73a4.44,4.44,0,0,0,6.27,6.27l54.35-54.35,7.73-7.74a.05.05,0,0,1,0,0s.09-.15.14-.22a4,4,0,0,0,1-2.49c0-.12.05-.25.05-.37a2.52,2.52,0,0,0-.05-.37,4,4,0,0,0-1-2.47c-.06-.08-.09-.17-.16-.25s0,0,0-.05L86.1,9,78.37,1.3A4.44,4.44,0,0,0,72.1,7.57l54.35,54.36.16.17H4.28a4.43,4.43,0,1,0,0,8.85" transform="translate(0.15 -0.11)"/></g></g></g></g></svg>