<?xml version="1.0" encoding="utf-8"?>
<!-- Generator: Adobe Illustrator 25.2.1, SVG Export Plug-In . SVG Version: 6.00 Build 0)  -->
<svg version="1.1" id="Layer_1" xmlns="http://www.w3.org/2000/svg" xmlns:xlink="http://www.w3.org/1999/xlink" x="0px" y="0px"
	 viewBox="0 0 612 792" style="enable-background:new 0 0 612 792;" xml:space="preserve">
<style type="text/css">
	.st0{fill:#058E60;}
</style>
<path id="Trazado_4964" class="st0" d="M81.17,9.09c-39.14,0-70.87,31.73-70.87,70.87s31.73,70.87,70.87,70.87
	s70.87-31.73,70.87-70.87l0,0C151.98,40.83,120.28,9.13,81.17,9.09z M81.17,141.96c-34.25,0-62.01-27.76-62.01-62.01
	c0-34.25,27.76-62.01,62.01-62.01c34.25,0,62.01,27.76,62.01,62.01v0C143.14,114.18,115.4,141.92,81.17,141.96z"/>
<path id="Trazado_4965" class="st0" d="M85.6,44.52h-8.86v31.01H45.74v8.86h31.01v31.01h8.86V84.38h31.01v-8.86H85.6V44.52z"/>
</svg>
