<svg xmlns="http://www.w3.org/2000/svg" xmlns:xlink="http://www.w3.org/1999/xlink" viewBox="0 0 200.78 200.78"><defs><style>.cls-1{fill:none;}.cls-2{clip-path:url(#clip-path);}.cls-3{clip-path:url(#clip-path-2);}.cls-4{fill:#787878;}</style><clipPath id="clip-path" transform="translate(-154.51 132.95)"><path class="cls-1" d="M193.36-46.55a47.56,47.56,0,0,1,47.47-47.54A47.56,47.56,0,0,1,288.3-46.55,47.56,47.56,0,0,1,240.83,1a47.55,47.55,0,0,1-47.47-47.53m131,76.87L284.23-9.91a56.63,56.63,0,0,0,13.39-36.64,56.84,56.84,0,0,0-56.8-56.88h0A56.85,56.85,0,0,0,184-46.55h0a56.84,56.84,0,0,0,56.8,56.88h0A56.42,56.42,0,0,0,277.64-3.29L317.8,36.93a4.67,4.67,0,1,0,6.59-6.61h0"/></clipPath><clipPath id="clip-path-2" transform="translate(-154.51 132.95)"><rect class="cls-1" x="-796.52" y="-11455.74" width="8503.63" height="26390.78"/></clipPath></defs><title>buscar</title><g id="Capa_2" data-name="Capa 2"><g id="Layer_1" data-name="Layer 1"><g class="cls-2"><g id="Grupo_318" data-name="Grupo 318"><g class="cls-3"><g id="Grupo_317" data-name="Grupo 317"><path id="Trazado_89" data-name="Trazado 89" class="cls-4" d="M154.51-132.95H355.29V67.83H154.51Z" transform="translate(-154.51 132.95)"/></g></g></g></g></g></g></svg>