<?xml version="1.0" encoding="utf-8"?>
<!-- Generator: Adobe Illustrator 25.2.1, SVG Export Plug-In . SVG Version: 6.00 Build 0)  -->
<svg version="1.1" id="Layer_1" xmlns="http://www.w3.org/2000/svg" xmlns:xlink="http://www.w3.org/1999/xlink" x="0px" y="0px"
	 viewBox="0 0 612 792" style="enable-background:new 0 0 612 792;" xml:space="preserve">
<style type="text/css">
	.st0{fill:#787878;}
</style>
<g id="Grupo_7659_1_" transform="translate(447.681 519.593)">
	<g id="Grupo_7640_1_" transform="translate(0 5.219)">
		<path id="Trazado_5067_1_" class="st0" d="M-298.72-393.25H-428.8c-3.2,0-5.8-2.6-5.8-5.8v-76.93c0-1.17,0.95-2.12,2.12-2.12h0
			h137.44c1.17,0,2.12,0.95,2.12,2.12v0v76.93C-292.93-395.85-295.52-393.26-298.72-393.25z M-430.35-473.84v74.82
			c0,0.88,0.71,1.59,1.59,1.59h130.08c0.88,0,1.59-0.71,1.59-1.59v-74.82H-430.35z"/>
	</g>
	<g id="Grupo_7641_1_" transform="translate(0 1.831)">
		<path id="Trazado_5068_1_" class="st0" d="M-295.03-470.49h-137.44c-1.17,0-2.12-0.95-2.12-2.12v0v-20.25c0-3.2,2.6-5.8,5.8-5.8
			h16.48c1.17,0,2.12,0.95,2.12,2.12v0v3.53c0,2.94,2.39,5.33,5.33,5.33s5.33-2.39,5.33-5.33l0,0v-3.53c0-1.17,0.95-2.12,2.12-2.12
			h0h67.34c1.17,0,2.12,0.95,2.12,2.12v0v3.53c0,2.94,2.39,5.33,5.33,5.33s5.33-2.39,5.33-5.33l0,0v-3.53
			c0-1.17,0.95-2.12,2.12-2.12h0h16.48c3.2,0,5.8,2.6,5.8,5.8v20.25c0,1.17-0.95,2.12-2.12,2.12
			C-295-470.49-295.02-470.49-295.03-470.49z M-430.36-474.73h133.22v-18.15c0-0.87-0.71-1.58-1.58-1.58c0,0,0,0-0.01,0h-14.37v1.46
			c-0.03,5.27-4.33,9.52-9.6,9.49c-5.23-0.03-9.45-4.26-9.49-9.49v-1.46h-63.12v1.46c-0.03,5.27-4.33,9.52-9.6,9.49
			c-5.23-0.03-9.45-4.26-9.49-9.49v-1.46h-14.37c-0.87,0-1.59,0.7-1.59,1.58c0,0,0,0,0,0.01L-430.36-474.73z"/>
	</g>
	<g id="Grupo_7642_1_" transform="translate(2.854 0)">
		<path id="Trazado_5069_1_" class="st0" d="M-407.71-481.6c-5.27-0.01-9.54-4.28-9.54-9.54v-9.07c-0.03-5.27,4.22-9.57,9.49-9.6
			c5.27-0.03,9.57,4.22,9.6,9.49c0,0.04,0,0.08,0,0.11v9.07C-398.17-485.88-402.44-481.61-407.71-481.6z M-407.71-505.55
			c-2.94,0-5.33,2.39-5.33,5.33v9.07c0,2.94,2.39,5.33,5.33,5.33s5.33-2.39,5.33-5.33v-9.07
			C-402.38-503.17-404.77-505.55-407.71-505.55L-407.71-505.55z"/>
	</g>
	<g id="Grupo_7643_1_" transform="translate(14.483 0)">
		<path id="Trazado_5070_1_" class="st0" d="M-337.12-481.6c-5.27,0-9.54-4.27-9.55-9.54v-9.07c-0.03-5.27,4.22-9.57,9.49-9.6
			c5.27-0.03,9.57,4.22,9.6,9.49c0,0.04,0,0.08,0,0.11v9.07C-327.59-485.88-331.85-481.62-337.12-481.6z M-337.12-505.55
			c-2.94,0-5.33,2.39-5.33,5.33v9.07c0,2.94,2.39,5.33,5.33,5.33s5.33-2.39,5.33-5.33v-9.07
			C-331.79-503.17-334.18-505.55-337.12-505.55L-337.12-505.55z"/>
	</g>
	<g id="Grupo_7644_1_" transform="translate(1.72 6.842)">
		<path id="Trazado_5071_5_" class="st0" d="M-408.09-451.79h-13.92c-1.17,0-2.12-0.95-2.12-2.12v0v-12.23
			c0-1.17,0.95-2.12,2.12-2.12h0h13.92c1.17,0,2.12,0.95,2.12,2.12v0v12.23C-405.97-452.74-406.92-451.79-408.09-451.79
			L-408.09-451.79z M-419.91-456.03h9.71v-8.02h-9.71V-456.03z"/>
	</g>
	<g id="Grupo_7645_1_" transform="translate(5.2 6.842)">
		<path id="Trazado_5072_1_" class="st0" d="M-386.98-451.79h-13.92c-1.17,0-2.12-0.95-2.12-2.12v0v-12.23
			c0-1.17,0.95-2.12,2.12-2.12h0h13.92c1.17,0,2.12,0.95,2.12,2.12v0v12.23C-384.86-452.74-385.81-451.79-386.98-451.79
			L-386.98-451.79z M-398.79-456.03h9.71v-8.02h-9.71V-456.03z"/>
	</g>
	<g id="Grupo_7646_1_" transform="translate(8.68 6.842)">
		<path id="Trazado_5073_1_" class="st0" d="M-365.86-451.79h-13.92c-1.17,0-2.12-0.95-2.12-2.12v0v-12.23
			c0-1.17,0.95-2.12,2.12-2.12h0h13.92c1.17,0,2.12,0.95,2.12,2.12v0v12.23C-363.74-452.74-364.69-451.79-365.86-451.79
			L-365.86-451.79z M-377.68-456.03h9.71v-8.02h-9.71V-456.03z"/>
	</g>
	<g id="Grupo_7647_1_" transform="translate(12.161 6.842)">
		<path id="Trazado_5074_1_" class="st0" d="M-344.74-451.79h-13.92c-1.17,0-2.12-0.95-2.12-2.12v0v-12.23
			c0-1.17,0.95-2.12,2.12-2.12h0h13.92c1.17,0,2.12,0.95,2.12,2.12v0v12.23C-342.62-452.74-343.57-451.79-344.74-451.79
			L-344.74-451.79z M-356.55-456.03h9.71v-8.02h-9.71V-456.03z"/>
	</g>
	<g id="Grupo_7648_1_" transform="translate(15.641 6.842)">
		<path id="Trazado_5075_1_" class="st0" d="M-323.62-451.79h-13.92c-1.17,0-2.12-0.95-2.12-2.12v0v-12.23
			c0-1.17,0.95-2.12,2.12-2.12h0h13.92c1.17,0,2.12,0.95,2.12,2.12v0v12.23C-321.49-452.74-322.44-451.79-323.62-451.79
			L-323.62-451.79z M-335.43-456.03h9.71v-8.02h-9.71V-456.03z"/>
	</g>
	<g id="Grupo_7649_1_" transform="translate(1.72 10.047)">
		<path id="Trazado_5076_1_" class="st0" d="M-408.09-432.34h-13.92c-1.17,0-2.12-0.95-2.12-2.12v0v-12.23
			c0-1.17,0.95-2.12,2.12-2.12h0h13.92c1.17,0,2.12,0.95,2.12,2.12v0v12.23C-405.97-433.29-406.92-432.34-408.09-432.34
			L-408.09-432.34z M-419.91-436.58h9.71v-8.02h-9.71V-436.58z"/>
	</g>
	<g id="Grupo_7650_1_" transform="translate(5.2 10.047)">
		<path id="Trazado_5077_1_" class="st0" d="M-386.98-432.34h-13.92c-1.17,0-2.12-0.95-2.12-2.12v0v-12.23
			c0-1.17,0.95-2.12,2.12-2.12h0h13.92c1.17,0,2.12,0.95,2.12,2.12v0v12.23C-384.86-433.29-385.81-432.34-386.98-432.34
			L-386.98-432.34z M-398.79-436.58h9.71v-8.02h-9.71V-436.58z"/>
	</g>
	<g id="Grupo_7651_1_" transform="translate(8.68 10.047)">
		<path id="Trazado_5078_1_" class="st0" d="M-365.86-432.34h-13.92c-1.17,0-2.12-0.95-2.12-2.12v0v-12.23
			c0-1.17,0.95-2.12,2.12-2.12h0h13.92c1.17,0,2.12,0.95,2.12,2.12v0v12.23C-363.74-433.29-364.69-432.34-365.86-432.34
			L-365.86-432.34z M-377.68-436.58h9.71v-8.02h-9.71V-436.58z"/>
	</g>
	<g id="Grupo_7652_1_" transform="translate(12.161 10.047)">
		<path id="Trazado_5079_1_" class="st0" d="M-344.74-432.34h-13.92c-1.17,0-2.12-0.95-2.12-2.12v0v-12.23
			c0-1.17,0.95-2.12,2.12-2.12h0h13.92c1.17,0,2.12,0.95,2.12,2.12v0v12.23C-342.62-433.29-343.57-432.34-344.74-432.34
			L-344.74-432.34z M-356.55-436.58h9.71v-8.02h-9.71V-436.58z"/>
	</g>
	<g id="Grupo_7653_1_" transform="translate(15.641 10.047)">
		<path id="Trazado_5080_1_" class="st0" d="M-323.62-432.34h-13.92c-1.17,0-2.12-0.95-2.12-2.12v0v-12.23
			c0-1.17,0.95-2.12,2.12-2.12h0h13.92c1.17,0,2.12,0.95,2.12,2.12v0v12.23C-321.49-433.29-322.44-432.34-323.62-432.34
			L-323.62-432.34z M-335.43-436.58h9.71v-8.02h-9.71V-436.58z"/>
	</g>
	<g id="Grupo_7654_1_" transform="translate(1.72 13.251)">
		<path id="Trazado_5081_1_" class="st0" d="M-408.09-412.89h-13.92c-1.17,0-2.12-0.95-2.12-2.12v0v-12.23
			c0-1.17,0.95-2.12,2.12-2.12h0h13.92c1.17,0,2.12,0.95,2.12,2.12v0v12.23C-405.97-413.84-406.92-412.89-408.09-412.89
			L-408.09-412.89z M-419.91-417.13h9.71v-8.02h-9.71V-417.13z"/>
	</g>
	<g id="Grupo_7655_1_" transform="translate(5.2 13.251)">
		<path id="Trazado_5082_1_" class="st0" d="M-386.98-412.89h-13.92c-1.17,0-2.12-0.95-2.12-2.12v0v-12.23
			c0-1.17,0.95-2.12,2.12-2.12h0h13.92c1.17,0,2.12,0.95,2.12,2.12v0v12.23C-384.86-413.84-385.81-412.89-386.98-412.89
			L-386.98-412.89z M-398.79-417.13h9.71v-8.02h-9.71V-417.13z"/>
	</g>
	<g id="Grupo_7656_1_" transform="translate(8.68 13.251)">
		<path id="Trazado_5083_1_" class="st0" d="M-365.86-412.89h-13.92c-1.17,0-2.12-0.95-2.12-2.12v0v-12.23
			c0-1.17,0.95-2.12,2.12-2.12h0h13.92c1.17,0,2.12,0.95,2.12,2.12v0v12.23C-363.74-413.84-364.69-412.89-365.86-412.89
			L-365.86-412.89z M-377.68-417.13h9.71v-8.02h-9.71V-417.13z"/>
	</g>
	<g id="Grupo_7657_1_" transform="translate(12.161 13.251)">
		<path id="Trazado_5084_1_" class="st0" d="M-344.74-412.89h-13.92c-1.17,0-2.12-0.95-2.12-2.12v0v-12.23
			c0-1.17,0.95-2.12,2.12-2.12h0h13.92c1.17,0,2.12,0.95,2.12,2.12v0v12.23C-342.62-413.84-343.57-412.89-344.74-412.89
			L-344.74-412.89z M-356.55-417.13h9.71v-8.02h-9.71V-417.13z"/>
	</g>
	<g id="Grupo_7658_1_" transform="translate(15.641 13.251)">
		<path id="Trazado_5085_1_" class="st0" d="M-323.62-412.89h-13.92c-1.17,0-2.12-0.95-2.12-2.12v0v-12.23
			c0-1.17,0.95-2.12,2.12-2.12h0h13.92c1.17,0,2.12,0.95,2.12,2.12v0v12.23C-321.49-413.84-322.44-412.89-323.62-412.89
			L-323.62-412.89z M-335.43-417.13h9.71v-8.02h-9.71V-417.13z"/>
	</g>
</g>
</svg>
