<?xml version="1.0" encoding="utf-8"?>
<!-- Generator: Adobe Illustrator 25.2.1, SVG Export Plug-In . SVG Version: 6.00 Build 0)  -->
<svg version="1.1" id="Layer_1" xmlns="http://www.w3.org/2000/svg" xmlns:xlink="http://www.w3.org/1999/xlink" x="0px" y="0px"
	 viewBox="0 0 612 792" style="enable-background:new 0 0 612 792;" xml:space="preserve">
<style type="text/css">
	.st0{fill:#E11821;}
	.st1{fill:#006341;}
</style>
<g>
	<path class="st0" d="M108.64,34.11c-0.88-3.08-2.22-5.78-4.02-8.07c-1.8-2.3-4.12-4.11-6.97-5.44c-2.85-1.33-6.21-1.99-10.1-1.99
		H66.49v50.8h21.06c3.89,0,7.26-0.66,10.1-1.99c2.85-1.33,5.17-3.14,6.97-5.44c1.8-2.3,3.14-4.99,4.02-8.07
		c0.88-3.08,1.32-6.38,1.32-9.89C109.95,40.49,109.52,37.19,108.64,34.11z M100.39,51.15c-0.45,2.21-1.3,4.13-2.56,5.76
		c-1.26,1.64-2.99,2.92-5.19,3.84s-5.04,1.39-8.5,1.39h-8.75l-0.01-36.29h8.76c3.46,0,6.3,0.46,8.5,1.39
		c2.2,0.93,3.94,2.21,5.19,3.84c1.26,1.64,2.11,3.56,2.56,5.76c0.45,2.2,0.68,4.59,0.68,7.15
		C101.07,46.56,100.85,48.94,100.39,51.15z"/>
	<g id="Grupo_7355_54_" transform="translate(465.233 18.359)">
		<path id="CDT_54_" class="st1" d="M-415.82,16.4c-0.38-1.47-0.9-2.82-1.56-4.06s-1.52-2.3-2.56-3.2c-1.04-0.9-2.26-1.6-3.67-2.11
			s-3.03-0.75-4.87-0.75c-2.7,0-5.04,0.55-7.01,1.64c-1.97,1.09-3.57,2.55-4.8,4.37c-1.23,1.83-2.15,3.9-2.74,6.23
			c-0.59,2.32-0.89,4.69-0.89,7.12c0,2.42,0.3,4.79,0.89,7.12c0.59,2.32,1.51,4.4,2.74,6.23c1.23,1.83,2.83,3.29,4.8,4.37
			c1.97,1.09,4.3,1.64,7.01,1.64c1.99,0,3.75-0.34,5.26-1.03c1.52-0.69,2.82-1.64,3.91-2.85c1.09-1.21,1.95-2.62,2.56-4.23
			s1.02-3.34,1.21-5.19h8.68c-0.19,3.04-0.84,5.81-1.96,8.32c-1.11,2.51-2.62,4.68-4.52,6.51c-1.9,1.83-4.13,3.24-6.69,4.23
			c-2.56,1-5.38,1.49-8.47,1.49c-3.79,0-7.2-0.7-10.21-2.11c-3.01-1.41-5.56-3.31-7.65-5.73c-2.09-2.42-3.69-5.24-4.8-8.47
			c-1.11-3.23-1.67-6.66-1.67-10.32c0-3.61,0.56-7.02,1.67-10.25s2.72-6.05,4.8-8.47s4.64-4.34,7.65-5.76
			c3.01-1.42,6.41-2.14,10.21-2.13c2.85,0,5.53,0.39,8.04,1.17c2.51,0.78,4.73,1.92,6.65,3.41c1.92,1.49,3.47,3.31,4.66,5.44
			c1.19,2.13,1.92,4.58,2.21,7.33L-415.82,16.4z M-352.22,0.25h41.13v7.68h-16.16v43.12h-8.9V7.93h-16.07V0.25z"/>
	</g>
</g>
</svg>
