<?xml version="1.0" encoding="utf-8"?>
<!-- Generator: Adobe Illustrator 25.2.1, SVG Export Plug-In . SVG Version: 6.00 Build 0)  -->
<svg version="1.1" id="Layer_1" xmlns="http://www.w3.org/2000/svg" xmlns:xlink="http://www.w3.org/1999/xlink" x="0px" y="0px"
	 viewBox="0 0 612 792" style="enable-background:new 0 0 612 792;" xml:space="preserve">
<style type="text/css">
	.st0{fill:none;stroke:#006341;stroke-width:12.7996;stroke-linecap:round;}
	.st1{fill:none;stroke:#006341;stroke-width:12.7996;}
</style>
<g id="icon" transform="translate(-227.062 -363.583)">
	<g id="Capa_1" transform="translate(291.101 413.519)">
		<path id="Trazado_4920" class="st0" d="M39.64,29.68c-3.95-6.01-9.29-10.99-15.56-14.51"/>
		<path id="Trazado_4921" class="st0" d="M-19.4,13.43c-15.88,9.91-25.37,27.45-24.98,46.17v27.78c-0.29,5.44,3.86,10.09,9.29,10.42
			h74.33c5.43-0.33,9.58-4.98,9.29-10.42v-1.54"/>
	</g>
	<g id="Capa_5" transform="translate(295.724 415.541)">
		<path id="Path" class="st1" d="M71.31,31.29c-5.58-0.01-10.96,2.13-15.01,5.97c-4.06-3.85-9.44-5.99-15.03-5.97
			c-11.6-0.2-21.17,9.03-21.39,20.63c0,24.69,33.94,35.68,35.39,36.13c0.67,0.2,1.39,0.2,2.06,0c1.44-0.46,35.39-11.44,35.39-36.13
			C92.49,40.33,82.91,31.1,71.31,31.29z"/>
	</g>
	<g id="Capa_3" transform="translate(293.813 407.583)">
		<circle id="Elipse_45" class="st1" cx="-0.13" cy="-3.05" r="25.6"/>
	</g>
</g>
</svg>
