<?xml version="1.0" encoding="utf-8"?>
<!-- Generator: Adobe Illustrator 25.2.1, SVG Export Plug-In . SVG Version: 6.00 Build 0)  -->
<svg version="1.1" id="Layer_1" xmlns="http://www.w3.org/2000/svg" xmlns:xlink="http://www.w3.org/1999/xlink" x="0px" y="0px"
	 viewBox="0 0 612 792" style="enable-background:new 0 0 612 792;" xml:space="preserve">
<style type="text/css">
	.st0{fill:#000F08;}
</style>
<g id="_650143" transform="translate(0 0)">
	<g id="Grupo_6714" transform="translate(0 0)">
		<path id="Trazado_4913" class="st0" d="M155.95,28.02L143.1,15.18c-5.88-5.86-15.4-5.86-21.28,0l-95.56,95.56
			c-0.59,0.6-0.99,1.35-1.15,2.18l-6.42,34.67c-0.4,2.26,1.1,4.41,3.36,4.81c0.48,0.09,0.98,0.09,1.46,0l34.67-6.42
			c0.82-0.16,1.58-0.56,2.18-1.15l95.6-95.54C161.82,43.42,161.82,33.9,155.95,28.02z M27.95,143.18l3.85-20.98l17.09,17.09
			L27.95,143.18z M57.45,136.06l-22.38-22.38l81.73-81.72l22.38,22.39L57.45,136.06z M150.07,43.43l-5.03,5.03l-22.42-22.38
			l5.03-5.03c2.63-2.64,6.9-2.64,9.53-0.01c0,0,0.01,0.01,0.01,0.01l12.88,12.84c2.64,2.63,2.65,6.89,0.02,9.53
			C150.09,43.43,150.08,43.43,150.07,43.43L150.07,43.43z"/>
	</g>
</g>
</svg>
