<svg xmlns="http://www.w3.org/2000/svg" viewBox="0 0 141.7 161.21"><title>eliminar</title><g id="Capa_2" data-name="Capa 2"><g id="Layer_1" data-name="Layer 1"><g id="Grupo_7667" data-name="Grupo 7667"><path id="Trazado_4904" data-name="Trazado 4904" d="M70.83,142.31a4.72,4.72,0,0,0,4.72-4.72h0V61.39a4.72,4.72,0,0,0-9.44,0v76.2a4.72,4.72,0,0,0,4.72,4.72Z"/><path id="Trazado_4905" data-name="Trazado 4905" d="M99.17,142.31a4.72,4.72,0,0,0,4.72-4.72V61.39a4.72,4.72,0,0,0-9.44,0v76.2a4.72,4.72,0,0,0,4.72,4.72Z"/><path id="Trazado_4906" data-name="Trazado 4906" d="M42.49,142.31a4.72,4.72,0,0,0,4.72-4.72h0V61.39a4.72,4.72,0,0,0-9.44,0v76.2a4.72,4.72,0,0,0,4.72,4.72Z"/><path id="Trazado_4907" data-name="Trazado 4907" d="M4.7,47.22H18.91V156.49a4.72,4.72,0,0,0,4.72,4.72h94.45a4.72,4.72,0,0,0,4.72-4.72V47.22H137a4.73,4.73,0,1,0,0-9.45h-4.72V23.6a4.72,4.72,0,0,0-4.72-4.72H94.45V4.72A4.72,4.72,0,0,0,89.73,0H51.94a4.72,4.72,0,0,0-4.72,4.72V18.93H14.16a4.72,4.72,0,0,0-4.72,4.72V37.78H4.72a4.72,4.72,0,0,0,0,9.44ZM113.34,151.8h-85V47.22h85ZM56.66,9.43H85v9.48H56.66ZM18.91,28.32H122.78v9.45H18.91Z"/></g></g></g></svg>