<?xml version="1.0" encoding="utf-8"?>
<!-- Generator: Adobe Illustrator 25.2.1, SVG Export Plug-In . SVG Version: 6.00 Build 0)  -->
<svg version="1.1" id="Layer_1" xmlns="http://www.w3.org/2000/svg" xmlns:xlink="http://www.w3.org/1999/xlink" x="0px" y="0px"
	 viewBox="0 0 612 792" style="enable-background:new 0 0 612 792;" xml:space="preserve">
<g id="Grupo_7667" transform="translate(-666.783 -666.948)">
	<path id="Trazado_4904" d="M748.76,833.37c2.61,0,4.72-2.12,4.72-4.72l0,0v-76.2c0-2.61-2.12-4.72-4.72-4.72s-4.72,2.12-4.72,4.72
		v76.2C744.04,831.25,746.15,833.37,748.76,833.37L748.76,833.37z"/>
	<path id="Trazado_4905" d="M777.1,833.37c2.61,0,4.72-2.12,4.72-4.72v-76.2c0-2.61-2.12-4.72-4.72-4.72
		c-2.61,0-4.72,2.12-4.72,4.72v76.2C772.38,831.25,774.49,833.37,777.1,833.37C777.1,833.37,777.1,833.37,777.1,833.37z"/>
	<path id="Trazado_4906" d="M720.42,833.37c2.61,0,4.72-2.12,4.72-4.72l0,0v-76.2c0-2.61-2.12-4.72-4.72-4.72
		c-2.61,0-4.72,2.12-4.72,4.72v76.2C715.69,831.25,717.81,833.37,720.42,833.37L720.42,833.37z"/>
	<path id="Trazado_4907" d="M682.63,738.28h14.21v109.27c0,2.61,2.12,4.72,4.72,4.72h94.45c2.61,0,4.72-2.12,4.72-4.72V738.28h14.17
		c2.61,0,4.73-2.11,4.73-4.72c0-2.61-2.11-4.73-4.72-4.73c0,0,0,0,0,0h-4.72v-14.17c0-2.61-2.12-4.72-4.72-4.72h-33.09v-14.16
		c0-2.61-2.12-4.72-4.72-4.72c0,0,0,0,0,0h-37.79c-2.61,0-4.72,2.12-4.72,4.72v14.21h-33.06c-2.61,0-4.72,2.12-4.72,4.72v14.13
		h-4.72c-2.61,0-4.72,2.12-4.72,4.73C677.91,736.16,680.02,738.27,682.63,738.28z M791.27,842.86h-85.02V738.28h85.02V842.86z
		 M734.59,700.49h28.34v9.48h-28.34V700.49z M696.84,719.38h103.87v9.45H696.84V719.38z"/>
</g>
</svg>
