<svg xmlns="http://www.w3.org/2000/svg" xmlns:xlink="http://www.w3.org/1999/xlink" viewBox="0 0 141.86 132.82"><defs><style>.cls-1{fill:none;}.cls-2{clip-path:url(#clip-path);}</style><clipPath id="clip-path" transform="translate(-0.01 -0.11)"><rect class="cls-1" width="141.73" height="133.03"/></clipPath></defs><title>felcha</title><g id="Capa_2" data-name="Capa 2"><g id="Layer_1" data-name="Layer 1"><g class="cls-2"><g id="Group_3" data-name="Group 3"><path id="Fill_1" data-name="Fill 1" d="M137.44,62.09H15.11L61.89,15.3l7.73-7.73A4.44,4.44,0,0,0,63.35,1.3L9,55.65,1.28,63.39a.05.05,0,0,1,0,0s-.09.15-.14.22a4,4,0,0,0-1,2.49c0,.12,0,.25,0,.37s0,.24,0,.37a4,4,0,0,0,1,2.47c.06.08.09.17.16.25s0,0,0,0L55.63,124l7.73,7.73a4.44,4.44,0,0,0,6.27-6.27L15.27,71.12,15.11,71H137.44a4.43,4.43,0,1,0,0-8.86" transform="translate(-0.01 -0.11)"/></g></g></g></g></svg>