<svg xmlns="http://www.w3.org/2000/svg" width="72.354" height="66.386" viewBox="0 0 72.354 66.386">
  <g id="Group_7682" data-name="Group 7682" transform="translate(181 -29)">
    <g id="Group_7677" data-name="Group 7677" transform="translate(-181 29)">
      <g id="Group_7676" data-name="Group 7676" transform="translate(0 0)">
        <path id="Path_5088" data-name="Path 5088" d="M-112.749,29H-176.9a4.107,4.107,0,0,0-4.1,4.1V64.058h12.68V95.386h46.993V64.058h12.681V33.1A4.107,4.107,0,0,0-112.749,29Zm-10.816,64.148h-42.517V53.615h42.517Zm12.681-31.328h-10.443V53.615h4.1V51.377h-55.2v2.238h4.1V61.82h-10.443V33.1a1.867,1.867,0,0,1,1.865-1.865h64.148a1.867,1.867,0,0,1,1.865,1.865Z" transform="translate(181 -29)" fill="#0b6341"/>
        <path id="Path_5089" data-name="Path 5089" d="M183.848,74a4.848,4.848,0,1,0,4.848,4.848A4.854,4.854,0,0,0,183.848,74Zm0,7.459a2.611,2.611,0,1,1,2.611-2.611A2.614,2.614,0,0,1,183.848,81.459Z" transform="translate(-125.294 -67.287)" fill="#0b6341"/>
        <rect id="Rectangle_717" data-name="Rectangle 717" width="7" height="2" transform="translate(8.177 13.564)" fill="#0b6341"/>
        <rect id="Rectangle_718" data-name="Rectangle 718" width="14" height="3" transform="translate(8.177 8.564)" fill="#0b6341"/>
        <rect id="Rectangle_719" data-name="Rectangle 719" width="25.361" height="2.238" transform="translate(21.259 53.706)" fill="#0b6341"/>
        <rect id="Rectangle_720" data-name="Rectangle 720" width="29.837" height="2.238" transform="translate(21.259 46.247)" fill="#0b6341"/>
        <rect id="Rectangle_721" data-name="Rectangle 721" width="29.837" height="2.238" transform="translate(21.259 38.787)" fill="#0b6341"/>
        <rect id="Rectangle_722" data-name="Rectangle 722" width="29.837" height="2.238" transform="translate(21.259 31.328)" fill="#0b6341"/>
      </g>
    </g>
  </g>
</svg>
