<?xml version="1.0" encoding="utf-8"?>
<!-- Generator: Adobe Illustrator 25.2.1, SVG Export Plug-In . SVG Version: 6.00 Build 0)  -->
<svg version="1.1" id="Layer_1" xmlns="http://www.w3.org/2000/svg" xmlns:xlink="http://www.w3.org/1999/xlink" x="0px" y="0px"
	 viewBox="0 0 612 792" style="enable-background:new 0 0 612 792;" xml:space="preserve">
<style type="text/css">
	.st0{fill:#000F08;}
</style>
<path id="Trazado_5071" class="st0" d="M99.56,122.38h50.66c1.7,0,3.08-1.38,3.08-3.08l0,0V14.52c0-1.7-1.38-3.08-3.08-3.08l0,0
	H14.65c-1.7,0-3.08,1.37-3.08,3.07c0,0,0,0.01,0,0.01v104.78c0,1.7,1.37,3.08,3.07,3.08c0,0,0.01,0,0.01,0H99.56L99.56,122.38z
	 M147.14,111.86L99.81,64.53l47.33-43.03V111.86z M82.43,72.02L22.62,17.64h119.63L82.43,72.02z M65.06,64.55l-47.33,47.33V21.53
	L65.06,64.55z M69.62,68.7l10.74,9.76c0.57,0.52,1.31,0.8,2.07,0.8c0.77,0,1.51-0.29,2.07-0.8l10.74-9.76l47.53,47.54H22.09
	L69.62,68.7z M67.03,122.4h23.47"/>
</svg>
