<svg xmlns="http://www.w3.org/2000/svg" viewBox="0 0 141.73 110.96"><defs><style>.cls-1{fill:#000f08;}</style></defs><title>mail</title><g id="Capa_2" data-name="Capa 2"><g id="Layer_1" data-name="Layer 1"><path id="Trazado_5071" data-name="Trazado 5071" class="cls-1" d="M88,110.94h50.66a3.08,3.08,0,0,0,3.08-3.08h0V3.08A3.08,3.08,0,0,0,138.65,0H3.08A3.07,3.07,0,0,0,0,3.07H0V107.86a3.07,3.07,0,0,0,3.07,3.08H88Zm47.58-10.52L88.24,53.09l47.33-43ZM70.86,60.58,11.05,6.2H130.68ZM53.49,53.11,6.16,100.44V10.09Zm4.56,4.15L68.79,67a3.08,3.08,0,0,0,4.14,0l10.74-9.76L131.2,104.8H10.52ZM55.46,111H78.93"/></g></g></svg>