<svg xmlns="http://www.w3.org/2000/svg" viewBox="0 0 141.73 150.76"><defs><style>.cls-1{fill:#000f08;}</style></defs><title>print</title><g id="Capa_2" data-name="Capa 2"><g id="Layer_1" data-name="Layer 1"><path id="Trazado_4858" data-name="Trazado 4858" class="cls-1" d="M129,33.37H115V3.21A3.21,3.21,0,0,0,111.75,0H30a3.21,3.21,0,0,0-3.21,3.21h0V33.37h-14A12.77,12.77,0,0,0,0,46.13v57.71a3.21,3.21,0,0,0,3.21,3.21H26.76v40.5A3.21,3.21,0,0,0,30,150.76h81.78a3.21,3.21,0,0,0,3.21-3.21v-40.5h23.56a3.21,3.21,0,0,0,3.21-3.21V46.13A12.78,12.78,0,0,0,129,33.37ZM33.16,6.42h75.38V33.37h-14v-14a3.21,3.21,0,0,0-6.41,0v14h-14v-14a3.21,3.21,0,0,0-6.41,0v14h-14v-14a3.21,3.21,0,0,0-6.41,0v14h-14Zm75.39,74H33.16V76.71a6.36,6.36,0,0,1,6.32-6.32h62.71a6.36,6.36,0,0,1,6.32,6.32Zm0,64H33.16V86.78h75.38v57.56Zm26.75-43.7H115V76.71A12.77,12.77,0,0,0,102.2,64H39.51A12.77,12.77,0,0,0,26.75,76.71v23.93H6.41V46.13a6.36,6.36,0,0,1,6.32-6.32H128.92a6.36,6.36,0,0,1,6.32,6.32Z"/><path id="Trazado_4859" data-name="Trazado 4859" class="cls-1" d="M122.29,48.69a3.37,3.37,0,1,0,3.37,3.37h0A3.38,3.38,0,0,0,122.29,48.69Z"/><path id="Trazado_4860" data-name="Trazado 4860" class="cls-1" d="M109.46,48.69a3.37,3.37,0,1,0,3.37,3.37h0A3.37,3.37,0,0,0,109.46,48.69Z"/><path id="Trazado_4861" data-name="Trazado 4861" class="cls-1" d="M96.46,128.36H45.24a3.21,3.21,0,0,0,0,6.41H96.46a3.21,3.21,0,0,0,0-6.41Z"/><path id="Trazado_4862" data-name="Trazado 4862" class="cls-1" d="M96.46,112.36H45.24a3.21,3.21,0,0,0,0,6.41H96.46a3.21,3.21,0,1,0,0-6.41Z"/><path id="Trazado_4863" data-name="Trazado 4863" class="cls-1" d="M96.46,96.37H70.86a3.21,3.21,0,0,0,0,6.41H96.47a3.21,3.21,0,1,0,0-6.41Z"/></g></g></svg>