<?xml version="1.0" encoding="utf-8"?>
<!-- Generator: Adobe Illustrator 25.2.1, SVG Export Plug-In . SVG Version: 6.00 Build 0)  -->
<svg version="1.1" id="Layer_1" xmlns="http://www.w3.org/2000/svg" xmlns:xlink="http://www.w3.org/1999/xlink" x="0px" y="0px"
	 viewBox="0 0 612 792" style="enable-background:new 0 0 612 792;" xml:space="preserve">
<style type="text/css">
	.st0{fill:#000F08;}
</style>
<g>
	<path id="Trazado_4858" class="st0" d="M143.99,49.99H130V19.83c0-1.77-1.44-3.21-3.21-3.21H45c-1.77,0-3.21,1.44-3.21,3.21
		c0,0,0,0,0,0v30.16H27.8c-7.05,0.01-12.76,5.72-12.76,12.76v57.71c0,1.77,1.44,3.21,3.21,3.21l0,0H41.8v40.5
		c0,1.77,1.44,3.21,3.21,3.21c0,0,0,0,0,0h81.78c1.77,0,3.21-1.44,3.21-3.21v-40.5h23.56c1.77,0,3.21-1.44,3.21-3.21V62.75
		C156.76,55.7,151.04,49.99,143.99,49.99z M48.2,23.04h75.38v26.95h-14.04V35.97c0-1.77-1.44-3.2-3.21-3.2c-1.77,0-3.2,1.43-3.2,3.2
		v14.02H89.1V35.97c0-1.77-1.44-3.2-3.21-3.2c-1.77,0-3.2,1.43-3.2,3.2v14.02H68.65V35.97c0-1.77-1.44-3.2-3.21-3.2
		c-1.77,0-3.2,1.43-3.2,3.2v14.02H48.2V23.04z M123.59,97H48.2v-3.67c0.02-3.48,2.84-6.3,6.32-6.32h62.71
		c3.48,0.02,6.3,2.84,6.32,6.32L123.59,97z M123.59,160.96H48.2V103.4h75.38V160.96z M150.34,117.26H130V93.33
		c-0.01-7.05-5.72-12.76-12.76-12.76H54.55c-7.05,0.01-12.76,5.72-12.76,12.76v23.93H21.45V62.75c0.02-3.48,2.84-6.3,6.32-6.32
		h116.19c3.48,0.02,6.3,2.84,6.32,6.32L150.34,117.26z"/>
	<path id="Trazado_4859" class="st0" d="M137.33,65.31c-1.86,0-3.37,1.51-3.37,3.37c0,1.86,1.51,3.37,3.37,3.37s3.37-1.51,3.37-3.37
		l0,0C140.69,66.82,139.19,65.31,137.33,65.31z"/>
	<path id="Trazado_4860" class="st0" d="M124.5,65.31c-1.86,0-3.37,1.51-3.37,3.37c0,1.86,1.51,3.37,3.37,3.37
		c1.86,0,3.37-1.51,3.37-3.37l0,0C127.87,66.82,126.36,65.31,124.5,65.31z"/>
	<path id="Trazado_4861" class="st0" d="M111.5,144.98H60.28c-1.77,0-3.21,1.43-3.21,3.2c0,1.77,1.43,3.21,3.2,3.21
		c0,0,0.01,0,0.01,0h51.22c1.77,0,3.21-1.43,3.21-3.2c0-1.77-1.43-3.21-3.2-3.21C111.51,144.98,111.51,144.98,111.5,144.98z"/>
	<path id="Trazado_4862" class="st0" d="M111.5,128.98H60.28c-1.77,0-3.21,1.43-3.21,3.2c0,1.77,1.43,3.21,3.2,3.21
		c0,0,0.01,0,0.01,0h51.22c1.77,0,3.21-1.43,3.21-3.2s-1.43-3.21-3.2-3.21C111.51,128.98,111.51,128.98,111.5,128.98z"/>
	<path id="Trazado_4863" class="st0" d="M111.5,112.99H85.9c-1.77,0-3.21,1.43-3.21,3.2c0,1.77,1.43,3.21,3.2,3.21
		c0,0,0.01,0,0.01,0h25.61c1.77,0,3.21-1.43,3.21-3.2c0-1.77-1.43-3.21-3.2-3.21C111.51,112.99,111.51,112.99,111.5,112.99z"/>
</g>
</svg>
