<?xml version="1.0" encoding="utf-8"?>
<!-- Generator: Adobe Illustrator 25.2.1, SVG Export Plug-In . SVG Version: 6.00 Build 0)  -->
<svg version="1.1" id="Layer_1" xmlns="http://www.w3.org/2000/svg" xmlns:xlink="http://www.w3.org/1999/xlink" x="0px" y="0px"
	 viewBox="0 0 612 792" style="enable-background:new 0 0 612 792;" xml:space="preserve">
<style type="text/css">
	.st0{fill:#058E60;}
</style>
<g>
	<path id="Trazado_4964" class="st0" d="M78.39,5.97C39.25,5.97,7.52,37.7,7.52,76.84s31.73,70.87,70.87,70.87
		s70.87-31.73,70.87-70.87l0,0C149.2,37.72,117.5,6.02,78.39,5.97z M78.39,138.85c-34.25,0-62.01-27.76-62.01-62.01
		s27.76-62.01,62.01-62.01c34.25,0,62.01,27.76,62.01,62.01v0C140.36,111.07,112.62,138.81,78.39,138.85z"/>
	<path id="Trazado_4965_1_" class="st0" d="M82.82,73.8H42.96v8.55h39.86l0,0h31.01V73.8H82.82"/>
</g>
</svg>
