<?xml version="1.0" encoding="utf-8"?>
<!-- Generator: Adobe Illustrator 25.2.1, SVG Export Plug-In . SVG Version: 6.00 Build 0)  -->
<svg version="1.1" id="Layer_1" xmlns="http://www.w3.org/2000/svg" xmlns:xlink="http://www.w3.org/1999/xlink" x="0px" y="0px"
	 viewBox="0 0 612 792" style="enable-background:new 0 0 612 792;" xml:space="preserve">
<style type="text/css">
	.st0{fill:#000F08;}
</style>
<g>
	<g id="Grupo_6505">
		<g id="Grupo_6504">
			<path id="Trazado_4864" class="st0" d="M144.54,43.82h-37.37V22.51c-0.01-6.88-5.58-12.45-12.46-12.46h-67
				c-6.88,0.01-12.45,5.58-12.46,12.46v116.83c0.02,6.87,5.59,12.44,12.46,12.44h67c6.88-0.01,12.45-5.58,12.46-12.46v-23.18
				l14.18-14.18h23.2c6.87-0.02,12.43-5.59,12.44-12.46V56.28C156.97,49.41,151.41,43.84,144.54,43.82z M23.55,22.51
				c0-2.29,1.86-4.15,4.15-4.15h67c2.29,0,4.15,1.86,4.15,4.15v4.15h-75.3V22.51z M98.86,139.34c0,2.29-1.86,4.15-4.15,4.15h-67
				c-2.29,0-4.15-1.86-4.15-4.15v-12.45h75.3V139.34z M98.86,118.57h-75.3v-83.6h75.3v8.86H94.7c-6.88,0.01-12.45,5.58-12.46,12.46
				v33.23c0.01,6.88,5.58,12.45,12.46,12.46h4.15L98.86,118.57z M148.69,89.53c0,2.29-1.86,4.15-4.15,4.15h-24.92
				c-1.1,0-2.16,0.44-2.94,1.21l-9.52,9.52v-6.6l0,0c0-2.29-1.86-4.15-4.15-4.15l0,0H94.7c-2.29,0-4.15-1.86-4.15-4.15V56.28
				c0-2.29,1.86-4.15,4.15-4.15h49.83c2.29,0,4.15,1.86,4.15,4.15L148.69,89.53z"/>
		</g>
	</g>
	<g id="Grupo_6507" transform="translate(14.394 8.675)">
		<g id="Grupo_6506">
			<path id="Trazado_4865" class="st0" d="M121.84,51.76H88.61c-2.29,0.01-4.15,1.87-4.14,4.17c0.01,2.28,1.86,4.13,4.14,4.14h33.23
				c2.29,0.01,4.16-1.85,4.17-4.14c0.01-2.29-1.85-4.16-4.14-4.17C121.85,51.76,121.84,51.76,121.84,51.76z"/>
		</g>
	</g>
	<g id="Grupo_6509" transform="translate(14.394 11.534)">
		<g id="Grupo_6508">
			<path id="Trazado_4866" class="st0" d="M105.23,65.51H88.62c-2.29-0.01-4.16,1.85-4.17,4.14c-0.01,2.29,1.85,4.16,4.14,4.17
				c0.01,0,0.02,0,0.03,0h16.61c2.29-0.01,4.15-1.87,4.14-4.17C109.36,67.37,107.51,65.52,105.23,65.51z"/>
		</g>
	</g>
</g>
</svg>
