<svg xmlns="http://www.w3.org/2000/svg" viewBox="0 0 141.74 141.73"><defs><style>.cls-1{fill:#000f08;}</style></defs><title>sms</title><g id="Capa_2" data-name="Capa 2"><g id="Layer_1" data-name="Layer 1"><g id="Grupo_6505" data-name="Grupo 6505"><g id="Grupo_6504" data-name="Grupo 6504"><path id="Trazado_4864" data-name="Trazado 4864" class="cls-1" d="M129.29,33.77H91.92V12.46A12.47,12.47,0,0,0,79.46,0h-67A12.47,12.47,0,0,0,0,12.46V129.29a12.47,12.47,0,0,0,12.46,12.44h67a12.47,12.47,0,0,0,12.46-12.46V106.09L106.1,91.91h23.2a12.48,12.48,0,0,0,12.44-12.46V46.23A12.49,12.49,0,0,0,129.29,33.77ZM8.3,12.46a4.15,4.15,0,0,1,4.15-4.15h67a4.15,4.15,0,0,1,4.15,4.15v4.15H8.3ZM83.61,129.29a4.15,4.15,0,0,1-4.15,4.15h-67a4.15,4.15,0,0,1-4.15-4.15V116.84h75.3Zm0-20.77H8.31V24.92h75.3v8.86H79.45A12.47,12.47,0,0,0,67,46.24V79.47A12.47,12.47,0,0,0,79.45,91.93H83.6Zm49.83-29a4.15,4.15,0,0,1-4.15,4.15H104.37a4.2,4.2,0,0,0-2.94,1.21l-9.52,9.52v-6.6h0a4.15,4.15,0,0,0-4.15-4.15H79.45a4.15,4.15,0,0,1-4.15-4.15V46.23a4.15,4.15,0,0,1,4.15-4.15h49.83a4.15,4.15,0,0,1,4.15,4.15Z"/></g></g><g id="Grupo_6507" data-name="Grupo 6507"><g id="Grupo_6506" data-name="Grupo 6506"><path id="Trazado_4865" data-name="Trazado 4865" class="cls-1" d="M121,50.38H87.75a4.16,4.16,0,0,0,0,8.31H121a4.15,4.15,0,1,0,0-8.3Z"/></g></g><g id="Grupo_6509" data-name="Grupo 6509"><g id="Grupo_6508" data-name="Grupo 6508"><path id="Trazado_4866" data-name="Trazado 4866" class="cls-1" d="M104.37,67H87.76a4.16,4.16,0,1,0,0,8.31h16.64a4.16,4.16,0,0,0,0-8.31Z"/></g></g></g></g></svg>