<?xml version="1.0" encoding="utf-8"?>
<!-- Generator: Adobe Illustrator 25.2.1, SVG Export Plug-In . SVG Version: 6.00 Build 0)  -->
<svg version="1.1" id="Layer_1" xmlns="http://www.w3.org/2000/svg" xmlns:xlink="http://www.w3.org/1999/xlink" x="0px" y="0px"
	 viewBox="0 0 612 792" style="enable-background:new 0 0 612 792;" xml:space="preserve">
<style type="text/css">
	.st0{fill-rule:evenodd;clip-rule:evenodd;fill:#000F08;}
</style>
<path id="_1384023" class="st0" d="M130.41,28.49C102.85,0.92,58.16,0.91,30.59,28.47C8.01,51.05,3.4,85.98,19.35,113.64
	L9.33,150.19l37.43-9.81c10.35,5.64,21.94,8.59,33.72,8.59h0.03c38.99-0.02,70.58-31.65,70.55-70.63
	c-0.01-18.69-7.43-36.61-20.64-49.84L130.41,28.49z M80.49,137.04L80.49,137.04c-10.5-0.01-20.8-2.84-29.83-8.19l-2.14-1.27
	l-22.22,5.85l5.92-21.64l-1.42-2.24C13.6,82.11,21.89,45.91,49.33,28.7s63.64-8.92,80.85,18.52c17.21,27.44,8.92,63.64-18.52,80.85
	c-9.33,5.85-20.13,8.96-31.14,8.97L80.49,137.04z M112.66,93.11c-1.75-0.88-10.43-5.15-12.05-5.74c-1.61-0.59-2.79-0.88-3.97,0.88
	c-1.18,1.77-4.56,5.74-5.59,6.91s-2.06,1.32-3.82,0.44c-5.2-2.08-10-5.05-14.18-8.77c-3.85-3.55-7.15-7.65-9.8-12.17
	c-1.03-1.75,0-2.63,0.77-3.6c1.62-1.9,3.09-3.91,4.41-6.03c0.48-0.99,0.42-2.15-0.15-3.09c-0.44-0.88-3.97-9.56-5.43-13.09
	c-1.43-3.44-2.88-2.97-3.97-3.02s-2.2-0.06-3.38-0.06c-1.8,0.05-3.49,0.85-4.68,2.2c-4.04,3.81-6.29,9.15-6.2,14.71
	c0.58,6.64,3.08,12.97,7.2,18.21c7.56,11.33,17.94,20.51,30.12,26.62c3.28,1.42,6.64,2.65,10.05,3.71c3.6,1.09,7.4,1.33,11.11,0.7
	c4.96-1.01,9.28-4.05,11.9-8.39c1.15-2.63,1.51-5.55,1.03-8.39c-0.44-0.7-1.62-1.14-3.38-2.02L112.66,93.11z"/>
</svg>
