<svg xmlns="http://www.w3.org/2000/svg" viewBox="0 0 141.73 142.38"><defs><style>.cls-1{fill:#000f08;fill-rule:evenodd;}</style></defs><title>whatsapp</title><g id="Capa_2" data-name="Capa 2"><g id="Layer_1" data-name="Layer 1"><path id="_1384023" data-name=" 1384023" class="cls-1" d="M121.08,20.68A70.58,70.58,0,0,0,10,105.83L0,142.38l37.43-9.81a70.46,70.46,0,0,0,33.72,8.59h0A70.59,70.59,0,0,0,121.09,20.69ZM71.16,129.23h0A58.63,58.63,0,0,1,41.33,121l-2.14-1.27L17,125.62,22.89,104l-1.42-2.24a58.65,58.65,0,1,1,49.72,27.49ZM103.33,85.3c-1.75-.88-10.43-5.15-12-5.74s-2.79-.88-4,.88-4.56,5.74-5.59,6.91-2.06,1.32-3.82.44A48.34,48.34,0,0,1,63.72,79a53,53,0,0,1-9.8-12.17c-1-1.75,0-2.63.77-3.6a50.07,50.07,0,0,0,4.41-6A3.23,3.23,0,0,0,59,54.13c-.44-.88-4-9.56-5.43-13.09s-2.88-3-4-3S47.35,38,46.17,38a6.48,6.48,0,0,0-4.68,2.2,19.78,19.78,0,0,0-6.2,14.71,34.29,34.29,0,0,0,7.2,18.21A78.57,78.57,0,0,0,72.61,99.7a100,100,0,0,0,10,3.71,24.29,24.29,0,0,0,11.11.7,18.13,18.13,0,0,0,11.9-8.39,14.8,14.8,0,0,0,1-8.39c-.44-.7-1.62-1.14-3.38-2Z"/></g></g></svg>